# xmcd
#
# Track frame offsets: 
#        150
#        20812
#        39601
#        59108
#        92407
#        111959
#        135363
#        161250
#        188258
#        206926
#
# Disc length: 3078 seconds
#
# Revision: 0
# Processed by: cddbd v1.5.2PL0 Copyright (c) Steve Scherf et al.
# Submitted via: ExactAudioCopyFreeDBPlugin 1.0
#
DISCID=840c040a
DTITLE=The Weeknd - Echoes Of Silence
DYEAR=2012
DGENRE=R&B
TTITLE0=D.D.
TTITLE1=Montreal
TTITLE2=Outside
TTITLE3=XO - The Host
TTITLE4=Initiation
TTITLE5=Same Old Song Feat. Juicy J
TTITLE6=The Fall
TTITLE7=Next
TTITLE8=Echoes Of Silence
TTITLE9=Till Dawn (Here Comes The Sun)
EXTD=
EXTT0=
EXTT1=
EXTT2=
EXTT3=
EXTT4=
EXTT5=
EXTT6=
EXTT7=
EXTT8=
EXTT9=
PLAYORDER=
